<?xml version="1.0" encoding="UTF-8"?>
<svg id="Layer_1" xmlns="http://www.w3.org/2000/svg" version="1.1" viewBox="0 0 792 576">
  <!-- Generator: Adobe Illustrator 29.7.1, SVG Export Plug-In . SVG Version: 2.1.1 Build 8)  -->
  <defs>
    <style>
      .st0 {
        fill: #4c858e;
      }

      .st1 {
        display: none;
        fill: #fff;
      }

      .st2 {
        font-family: Montserrat-Bold, Montserrat;
        font-size: 21.95px;
        font-weight: 700;
      }

      .st2, .st3 {
        fill: #231f20;
      }

      .st2, .st4 {
        isolation: isolate;
      }

      .st5 {
        fill: #025157;
      }
    </style>
  </defs>
  <rect class="st1" x="-1.21" y="83.22" width="791.72" height="415.15"/>
  <path class="st3" d="M4.05,304.64v25.88c0,6.86,4.64,6.02,6.06,6.02h773.27v25.9h6.07v-25.82s1.04-6.09-6.17-6.09H10.13v-25.89h-6.08Z"/>
  <polygon class="st3" points="403.42 150.41 387.86 150.41 357.81 118.47 357.81 150.41 340.5 150.41 340.5 93.06 356.01 93.06 385.99 124.84 385.99 93.06 403.42 93.06 403.42 150.41 403.42 150.41"/>
  <path class="st3" d="M482.1,121.69c0,5.35-1.24,10.28-3.74,14.77-2.5,4.49-6.21,8.07-11.14,10.71s-10.94,3.97-18.02,3.97-13.22-1.38-18.18-4.14-8.65-6.39-11.06-10.88-3.62-9.32-3.62-14.44,1.2-9.98,3.59-14.46c2.4-4.48,6.08-8.1,11.06-10.84s11.04-4.12,18.2-4.12c5.35,0,10.12.78,14.32,2.36,4.2,1.58,7.64,3.7,10.35,6.39,2.7,2.69,4.75,5.82,6.15,9.4s2.09,7.33,2.09,11.28h0ZM464.29,121.69c0-2.15-.32-4.12-.96-5.89s-1.61-3.32-2.91-4.63-2.88-2.33-4.75-3.07c-1.87-.73-4.03-1.1-6.48-1.1-4.68,0-8.36,1.35-11.03,4.06-2.68,2.71-4.02,6.25-4.02,10.64s1.35,7.94,4.04,10.66c2.69,2.72,6.36,4.08,11.02,4.08,3.2,0,5.93-.63,8.19-1.88,2.26-1.25,3.97-3,5.14-5.22s1.76-4.76,1.76-7.64h0Z"/>
  <path class="st3" d="M551.22,150.41h-18.77l-4.55-10.18c-1.67-3.72-3.17-6.45-4.51-8.17-1.34-1.73-2.64-2.83-3.91-3.31s-2.91-.72-4.91-.72h-1.96v22.39h-17.48v-57.35h29.72c4.8,0,8.73.96,11.8,2.9s5.27,4.28,6.63,7.03c1.35,2.76,2.03,5.38,2.03,7.87,0,2.9-.57,5.35-1.7,7.34-1.13,2-2.32,3.45-3.57,4.37-1.26.91-2.66,1.78-4.23,2.61,1.87,1.07,3.4,2.35,4.62,3.83,1.21,1.48,2.87,4.46,4.95,8.96l5.85,12.45h0ZM527.48,111.18c0-2.65-.88-4.49-2.64-5.55-1.76-1.05-4.61-1.57-8.56-1.57h-3.68v13.82h3.76c4.27,0,7.18-.47,8.76-1.39s2.36-2.7,2.36-5.32h0Z"/>
  <polygon class="st3" points="613.19 107.01 591.95 107.01 591.95 150.41 574.51 150.41 574.51 107.01 553.28 107.01 553.28 93.06 613.19 93.06 613.19 107.01 613.19 107.01"/>
  <path class="st3" d="M682.63,121.69c0,5.35-1.24,10.28-3.74,14.77-2.49,4.49-6.2,8.07-11.14,10.71-4.93,2.65-10.93,3.97-18.02,3.97s-13.22-1.38-18.19-4.14-8.64-6.39-11.06-10.88c-2.41-4.49-3.61-9.32-3.61-14.44s1.19-9.98,3.59-14.46c2.4-4.48,6.08-8.1,11.06-10.84s11.04-4.12,18.21-4.12c5.35,0,10.12.78,14.32,2.36s7.64,3.7,10.35,6.39c2.7,2.69,4.75,5.82,6.15,9.4,1.4,3.57,2.08,7.33,2.08,11.28h0ZM664.82,121.69c0-2.15-.33-4.12-.96-5.89-.64-1.78-1.61-3.32-2.91-4.63-1.29-1.31-2.88-2.33-4.74-3.07s-4.03-1.1-6.48-1.1c-4.68,0-8.36,1.35-11.04,4.06s-4.01,6.25-4.01,10.64,1.34,7.94,4.03,10.66c2.7,2.72,6.36,4.08,11.02,4.08,3.2,0,5.93-.63,8.18-1.88,2.26-1.25,3.98-3,5.15-5.22s1.76-4.76,1.76-7.64h0Z"/>
  <polygon class="st3" points="757.36 150.41 741.8 150.41 711.74 118.47 711.74 150.41 694.44 150.41 694.44 93.06 709.94 93.06 739.93 124.84 739.93 93.06 757.36 93.06 757.36 150.41 757.36 150.41"/>
  <path class="st3" d="M396.6,251.8h-18.77l-4.55-10.18c-1.68-3.72-3.17-6.45-4.51-8.17-1.34-1.73-2.64-2.83-3.91-3.31-1.27-.49-2.91-.72-4.91-.72h-1.96v22.39h-17.47v-57.35h29.72c4.79,0,8.73.96,11.8,2.9,3.07,1.93,5.28,4.28,6.63,7.03s2.02,5.38,2.02,7.87c0,2.9-.57,5.35-1.7,7.34-1.13,2-2.32,3.45-3.58,4.37-1.25.91-2.66,1.78-4.23,2.61,1.87,1.07,3.4,2.35,4.62,3.83,1.21,1.48,2.87,4.46,4.95,8.96l5.85,12.45h0ZM372.85,212.58c0-2.65-.88-4.49-2.64-5.55s-4.61-1.58-8.56-1.58h-3.68v13.82h3.76c4.27,0,7.19-.47,8.76-1.39,1.58-.92,2.36-2.7,2.36-5.32h0Z"/>
  <polygon class="st3" points="424.24 251.8 406.77 251.8 406.77 194.45 424.24 194.45 424.24 251.8 424.24 251.8"/>
  <path class="st3" d="M506.45,251.8h-22.45l-6.14-7.2c-.2-.28-1.41-1.75-3.64-4.4-2.23-2.66-3.71-4.47-4.42-5.45-3.34,4.46-6.08,8-8.2,10.6l-5.31,6.46h-22.12l24.58-29.83-23.46-27.52h22.33l3.97,4.8c2.29,2.79,5.02,6.26,8.2,10.43,3.04-4.41,5.46-7.68,7.27-9.81l4.55-5.42h21.91l-22.53,27.52,25.47,29.83h0Z"/>
  <path class="st3" d="M556.79,235.13c0,3.59-.93,6.69-2.78,9.32-1.86,2.62-4.44,4.62-7.76,6.02-3.31,1.39-7.12,2.09-11.42,2.09-1.2,0-2.67-.08-4.4-.23-1.75-.15-4.06-.58-6.94-1.26-2.89-.69-5.88-1.71-9.01-3.07v-14.07c2.93,1.8,5.8,3.28,8.63,4.47,2.83,1.19,5.86,1.78,9.1,1.78,2.98,0,4.91-.49,5.79-1.47.87-.98,1.31-1.89,1.31-2.75,0-1.55-.75-2.85-2.25-3.91-1.51-1.06-3.69-2.15-6.57-3.28-3.17-1.32-5.97-2.77-8.36-4.33-2.4-1.56-4.35-3.51-5.86-5.85-1.53-2.34-2.28-5.12-2.28-8.31s.76-5.88,2.3-8.38c1.53-2.5,3.87-4.49,7.02-5.98,3.14-1.49,6.99-2.23,11.54-2.23,3.23,0,6.22.31,8.97.93,2.75.63,5.01,1.32,6.8,2.09s3.01,1.38,3.68,1.82v13.45c-2.37-1.68-5.01-3.18-7.92-4.51-2.92-1.32-6.03-1.98-9.35-1.98-2.17,0-3.75.42-4.72,1.24s-1.47,1.85-1.47,3.07c0,1.13.49,2.11,1.47,2.94.97.82,2.72,1.84,5.22,3.02,4.45,2.07,8.03,3.93,10.7,5.59,2.68,1.66,4.77,3.56,6.29,5.73,1.52,2.16,2.28,4.86,2.28,8.09h0v-.02Z"/>
  <path class="st3" d="M632.8,223.08c0,5.35-1.24,10.28-3.74,14.77-2.49,4.49-6.21,8.07-11.14,10.71s-10.94,3.97-18.02,3.97-13.22-1.38-18.19-4.14-8.65-6.39-11.06-10.88c-2.41-4.49-3.62-9.32-3.62-14.44s1.2-9.98,3.59-14.46c2.4-4.48,6.08-8.1,11.06-10.84,4.98-2.75,11.04-4.12,18.2-4.12,5.35,0,10.12.78,14.32,2.36,4.19,1.57,7.64,3.7,10.35,6.39,2.7,2.69,4.75,5.82,6.15,9.4,1.39,3.57,2.08,7.33,2.08,11.28h0ZM614.99,223.08c0-2.15-.33-4.12-.96-5.89-.64-1.78-1.61-3.32-2.91-4.63-1.3-1.31-2.88-2.33-4.75-3.07-1.87-.73-4.03-1.1-6.48-1.1-4.68,0-8.36,1.35-11.03,4.06-2.68,2.71-4.01,6.25-4.01,10.64s1.34,7.94,4.03,10.66,6.36,4.08,11.02,4.08c3.2,0,5.93-.63,8.19-1.88,2.26-1.25,3.97-3,5.14-5.22,1.17-2.22,1.76-4.76,1.76-7.64h0Z"/>
  <polygon class="st3" points="707.51 251.8 691.97 251.8 661.9 219.86 661.9 251.8 644.6 251.8 644.6 194.45 660.1 194.45 690.08 226.23 690.08 194.45 707.51 194.45 707.51 251.8 707.51 251.8"/>
  <path class="st3" d="M294.09,398.87l-25.41,66.28c-.04-21.41-21.36-25.77-28.3-27.46-23.89-6.1-28.42-6.97-28.43-14.28,0-7.94,7.75-10.69,14.42-10.69,10.03,0,18.16,2.9,18.84,14.25h20.28c-.03-21.8-18.3-30.37-38.17-30.36-17.01,0-35.13,9.03-35.6,27.8-1.43-19.86-18.97-27.78-38.08-27.76-17.17,0-35.59,9.27-35.58,28.53,0,17.73,14.29,23.11,28.42,26.81,14.03,3.71,28.3,5.42,28.28,15.58,0,9.64-11.19,11.75-18.51,11.78-11.23,0-21.08-4.89-21.1-17.43h-20.03l-23.85-63.02h-21.45l-36.1,94.32h21.19l7.47-20.99h35.66l7.19,20.99h21.74l-3.34-8.82c7.69,7.54,19.49,11.06,31.82,11.04,19.07,0,31.54-7.04,36.78-17.68,6.67,12.11,21.39,17.67,36.87,17.65,14.96,0,25.82-4.36,32.36-11.35l-3.48,9.15h21.22l7.47-21.07h35.65l7.21,21.1h21.77l-35.68-94.34h-21.51v-.02ZM67.82,456.74l12.41-34.59h.28l12.01,34.59h-24.7ZM229.83,479.28c-11.19.02-21.06-4.88-21.1-17.38l-13.89-.02c-2.07-18.55-21.52-22.54-28.11-24.17-23.85-6.07-28.4-7.01-28.41-14.25.03-7.95,7.75-10.71,14.42-10.7,10.03,0,18.14,2.88,18.83,14.24h20.2c.99,16.22,14.69,21.42,28.32,24.95,14.03,3.69,28.31,5.4,28.32,15.58,0,9.63-11.2,11.76-18.58,11.77h0ZM292.1,456.67l12.42-34.6h.26l12.04,34.59h-24.73,0ZM520.22,441.92c8.29-3.98,12.95-10.46,12.98-19.71-.02-17.55-12.3-23.37-30.48-23.3h-44.83l.04,87.31-33.03-87.32h-21.52l-36.13,94.33h21.24l7.45-21h35.67l7.2,20.98h21.77l43.56.02c17.2-.04,33.6-8.27,33.61-27.42,0-11.76-5.89-20.6-17.51-23.87h-.02ZM401.4,456.76l12.42-34.61h.27l12.02,34.61h-24.71,0ZM478.86,414.95h19.6c7.46.02,14.42,1.86,14.44,10.83,0,7.95-5.51,11.26-12.8,11.24h-21.24v-22.08h0ZM501.31,477.04h-22.43l-.02-25.89h22.83c8.93,0,15.1,3.83,15.07,13.47,0,9.78-7.21,12.41-15.45,12.41h0ZM635.86,396.59c-29.47-.02-46.84,21.77-46.82,49.79.03,11.01,2.91,21.09,8.22,29.23h-35.51l-.02-76.71h-20.93v94.32h60.79v-11.95c8.01,8.74,19.66,14.12,34.32,14.1,29.48,0,46.83-21.8,46.8-49.01,0-28.02-17.37-49.81-46.86-49.76h0ZM635.91,477.94c-18.83,0-25.89-15.84-25.91-31.57-.02-16.51,7.03-32.36,25.87-32.37,18.83,0,25.89,15.83,25.92,32.32.02,15.76-7.08,31.59-25.89,31.62h0ZM736.04,398.88l-22.12,37.15-22.3-37.15h-23.63l35.09,57.47v36.84h20.96v-36.32l35.36-58h-23.35Z"/>
  <path class="st5" d="M232.06,252.04h-26.3l-.61-.49L56.59,133.83v118.03h-20.55V91.42l175.2,140.47v-30.48l20.81,15.31v35.31h0Z"/>
  <path class="st0" d="M328.06,252.44h-35.19l-117.89-93.64,31.98-.63,45.54-.32c10.93,0,19.82-8.96,19.82-19.97v-4.61c0-11.01-8.89-19.97-19.81-19.97H121.98v31.74l-21.79-17.42v-36.23h152.32c22.94,0,41.59,18.79,41.59,41.89v4.61c0,23.1-18.66,41.89-41.59,41.89l-17.03.12,92.58,72.55h0Z"/>
  <path class="st0" d="M122.48,251.95h-22.53v-68.39l22.53,18.67v49.72h0Z"/>
  <g class="st4">
    <text class="st2" transform="translate(765.65 106.04)"><tspan x="0" y="0">®</tspan></text>
  </g>
</svg>