<?xml version="1.0" encoding="UTF-8" standalone="no"?>
<svg
   xmlns:dc="http://purl.org/dc/elements/1.1/"
   xmlns:cc="http://creativecommons.org/ns#"
   xmlns:rdf="http://www.w3.org/1999/02/22-rdf-syntax-ns#"
   xmlns:svg="http://www.w3.org/2000/svg"
   xmlns="http://www.w3.org/2000/svg"
   xmlns:sodipodi="http://sodipodi.sourceforge.net/DTD/sodipodi-0.dtd"
   xmlns:inkscape="http://www.inkscape.org/namespaces/inkscape"
   version="1.1"
   id="svg2"
   xml:space="preserve"
   width="344.72"
   height="184.77333"
   viewBox="0 0 344.72 184.77333"
   sodipodi:docname="CorbinRusswin_CMYK (1).eps"><metadata
     id="metadata8"><rdf:RDF><cc:Work
         rdf:about=""><dc:format>image/svg+xml</dc:format><dc:type
           rdf:resource="http://purl.org/dc/dcmitype/StillImage" /></cc:Work></rdf:RDF></metadata><defs
     id="defs6" /><sodipodi:namedview
     pagecolor="#ffffff"
     bordercolor="#666666"
     borderopacity="1"
     objecttolerance="10"
     gridtolerance="10"
     guidetolerance="10"
     inkscape:pageopacity="0"
     inkscape:pageshadow="2"
     inkscape:window-width="640"
     inkscape:window-height="480"
     id="namedview4" /><g
     id="g10"
     inkscape:groupmode="layer"
     inkscape:label="ink_ext_XXXXXX"
     transform="matrix(1.3333333,0,0,-1.3333333,0,184.77333)"><g
       id="g12"
       transform="scale(0.1)"><path
         d="m 0,634.395 c 0,0 0,-68.887 0,-86.075 0,-22.812 15.2773,-20.039 19.9414,-20.039 226.4726,0 2526.4986,-0.011 2545.2486,-0.011 0,-16.051 0,-86.122 0,-86.122 h 20 v 85.86 c 0,0 3.44,20.262 -20.31,20.262 -228.77,0 -2526.1417,0.011 -2544.88,0.011 0,16.055 0,86.114 0,86.114 H 0"
         style="fill:#231f20;fill-opacity:1;fill-rule:nonzero;stroke:none"
         id="path14" /><path
         d="m 2409.34,321.031 -72.81,-123.543 -73.42,123.543 h -77.79 L 2300.83,129.922 V 7.42188 h 69 L 2369.81,128.18 2486.22,321.039 Z M 2079.77,58.1289 c -61.97,0 -85.21,52.7111 -85.29,104.9801 -0.08,54.891 23.14,107.59 85.17,107.629 61.98,0 85.22,-52.636 85.34,-107.468 0.05,-52.399 -23.31,-105.0512 -85.22,-105.1411 z m -0.18,270.5431 c -97.03,0.058 -154.17,-72.363 -154.1,-165.563 0.08,-36.609 9.55,-70.1207 27.07,-97.2106 H 1835.67 L 1835.59,321 1766.7,320.988 1766.72,7.37109 h 200.1 V 47.1289 c 26.37,-29.0586 64.73,-46.937494 112.97,-46.890619 97.05,0 154.12,72.492219 154.02,162.960719 0.04,93.172 -57.16,165.629 -154.22,165.473 z m -442.87,-267.5314 -73.82,-0.0195 -0.06,86.1089 75.13,0.02 c 29.4,0.039 49.69,-12.762 49.61,-44.828 0,-32.5431 -23.75,-41.2931 -50.86,-41.2814 z m -73.9,206.4804 h 64.51 c 24.55,-0.062 47.46,-6.172 47.54,-36.043 -0.04,-26.406 -18.13,-37.437 -42.11,-37.379 l -69.92,-0.027 z m -254.95,-139.051 40.9,115.121 h 0.88 l 39.57,-115.121 z m 391.08,49.36 c 27.29,13.211 42.62,34.769 42.7,65.531 -0.08,58.359 -40.49,77.719 -100.32,77.5 l -147.58,-0.012 0.14,-290.3279 -108.71,290.3909 -70.83,0.008 L 1195.42,7.33984 h 69.94 l 24.52,69.85156 h 117.37 l 23.69,-69.76952 71.66,0.02734 -0.04,-0.02734 143.4,-0.0625 c 56.62,0.14062 110.59,27.51172 110.65,91.19142 -0.06,39.1092 -19.42,68.4802 -57.66,79.3792 z m -750.86,-49.051 40.89,115.062 h 0.848 L 1029.49,128.922 Z M 743.152,53.6914 c -36.82,-0.0703 -69.328,16.2188 -69.445,57.7966 l -45.703,0.063 c -6.832,61.679 -70.82,74.937 -92.52,80.371 -78.488,20.18 -93.48,23.308 -93.527,47.387 0.106,26.402 25.492,35.64 47.438,35.582 33,-0.012 59.691,-9.563 61.972,-47.321 h 66.5 c 3.262,-53.949 48.348,-71.211 93.223,-82.961 46.172,-12.281 93.207,-17.961 93.223,-51.8082 -0.016,-32.0313 -36.868,-39.082 -61.161,-39.1094 z m -533.254,74.9496 40.86,115.019 h 0.918 L 291.215,128.621 Z M 954.652,321.07 871.023,100.672 c -0.117,71.207 -70.293,85.707 -93.168,91.308 -78.625,20.301 -93.546,23.192 -93.578,47.469 0.032,26.403 25.508,35.582 47.438,35.551 33.027,0.031 59.765,-9.609 61.996,-47.352 h 66.758 c -0.086,72.5 -60.239,100.973 -125.633,100.954 -56.02,0.046 -115.652,-30.032 -117.156,-92.442 -4.688,66.059 -62.446,92.379 -125.336,92.309 -56.528,0.019 -117.141,-30.809 -117.102,-94.867 0,-58.942 47.008,-76.852 93.559,-89.141 46.16,-12.313 93.148,-17.992 93.094,-51.7813 0.031,-32.0586 -36.821,-39.0586 -60.942,-39.1484 -36.965,-0.043 -69.39,16.2578 -69.449,57.9567 H 365.582 L 287.066,321.031 H 216.453 L 97.6211,7.39844 h 69.7659 l 24.578,69.81246 117.371,0.0274 23.687,-69.83986 h 71.543 L 393.563,36.7305 C 418.855,11.6719 457.73,-0.0703125 498.285,0 561.063,-0.0507813 602.109,23.4297 619.355,58.8008 641.309,18.5195 689.746,0.0507813 740.691,0.109375 c 49.243,0 85.016,14.468725 106.532,37.742225 L 835.746,7.44922 h 69.836 L 930.16,77.5117 1047.5,77.5313 1071.25,7.35156 1142.89,7.35938 1025.44,321.07 h -70.788"
         style="fill:#231f20;fill-opacity:1;fill-rule:nonzero;stroke:none"
         id="path16" /><path
         d="m 2542.93,1237.77 6.72,-11.1 h 8.72 l -7.08,11.1 h -8.36 z m -20.34,0 v -11.1 h 7.69 v 11.1 h -7.69 z m -23.77,0 c 5.06,-17.31 20.15,-29.22 39.85,-29.22 18.1,0 34.25,11.22 39.6,29.19 l -9.35,0.03 c -4.63,-13.39 -16.29,-21.87 -30.25,-21.87 -15.3,0 -26.17,9.06 -30.5,21.84 l -9.35,0.03 v 0"
         style="fill:#231f20;fill-opacity:1;fill-rule:evenodd;stroke:none"
         id="path18" /><path
         d="m 2530.28,1253.28 v 13.7 h 9.3 c 4.64,0 10.18,-0.68 10.18,-6.34 0,-6.79 -5.1,-7.36 -10.86,-7.36 h -8.62 z m 0,-15.51 v 8.94 h 7.25 l 5.4,-8.94 h 8.36 l -6.06,9.5 c 7.04,0.8 12.24,4.31 12.24,12.81 0,9.5 -5.78,13.46 -17.11,13.46 h -17.77 v -35.77 h 7.69 z m -22.11,0 c -1.4,4.05 -2.12,8.5 -2.12,13.13 0,20.62 14.28,34.99 32.62,34.99 18.12,0 32.39,-14.37 32.39,-34.99 0,-4.76 -0.76,-9.17 -2.14,-13.16 l 9.35,0.03 c 1.19,4.04 1.83,8.45 1.83,13.13 0,25.48 -19.24,42.34 -41.43,42.34 -22.42,0 -41.67,-16.86 -41.67,-42.34 0,-4.61 0.63,-9.01 1.82,-13.12 l 9.35,-0.01 v 0"
         style="fill:#231f20;fill-opacity:1;fill-rule:evenodd;stroke:none"
         id="path20" /><path
         d="m 2189.3,759.609 225.05,230.282 c 7.06,7.226 11.17,18.509 11.17,28.529 0,21.78 -17.98,41.11 -40.16,41.11 -10.58,0 -21.69,-3.76 -29.22,-11.4 L 2071.67,759.609 h -56.58 l 227.42,230.996 c 7.56,7.665 11.2,17.725 11.2,28.305 0,20.33 -21.68,40.14 -41.62,40.14 -11.21,0 -21.56,-4.64 -29.46,-12.59 L 1954.26,816.414 v 54.895 l 284.94,291.131 c 8.41,8.6 13.07,19.55 13.07,31.6 0,22.89 -21.08,41.59 -43.24,41.59 -10.77,0 -22.6,-8.4 -29.73,-15.69 L 1954.97,990.605 v 56.805 L 2070,1163.16 c 8.64,8.69 12.1,20.87 12.1,32.78 0,23.63 -22.91,37.79 -44.18,37.79 -27.47,0 -71.06,-54.99 -83.66,-67.25 v 121.67 H 2477.8 V 759.609 h -288.5 v 0"
         style="fill:#d41041;fill-opacity:1;fill-rule:nonzero;stroke:none"
         id="path22" /><path
         d="m 197.473,755.82 h -89.36 v 324.39 h 165.172 c 48.5,0 93.399,-32 93.399,-83.413 0,-39.629 -17.325,-68.652 -55.141,-82.473 16.187,-8.609 19.988,-16.797 25.906,-33.515 l 44.207,-124.989 -93.402,0.946 c -23.465,50.058 -13.699,124.043 -85.793,124.043 h -4.988 V 755.82 Z m 0.476,257.36 v -64.879 c 5.18,-0.215 10.504,-0.696 15.688,-0.696 25.347,0 62.734,0.93 62.734,34.7 0,31.555 -48.555,30.875 -70.105,30.875 h -8.317 v 0"
         style="fill:#231f20;fill-opacity:1;fill-rule:evenodd;stroke:none"
         id="path24" /><path
         d="m 842.012,992.273 v -65.117 c -18.922,13.821 -44.664,19.25 -67.727,19.25 -7.844,0 -33.98,-3.086 -33.98,-14.258 0,-1.066 2.168,-6.32 2.609,-7.597 25.707,-26.289 119.781,-4.91 119.781,-93.172 0,-54.785 -56.578,-82.934 -104.57,-82.934 -30.535,0 -63.375,0.918 -92.219,11.887 v 66.77 c 18.367,-9.125 54.824,-16.145 75.344,-16.145 10.027,0 33.984,0.281 33.984,15.438 0,1.835 -1.41,5.48 -1.898,7.367 -22.988,27.742 -115.734,11.968 -115.734,94.351 0,54.328 60.539,78.197 105.992,78.197 26.66,0 53.394,-4.88 78.418,-14.037 v 0"
         style="fill:#231f20;fill-opacity:1;fill-rule:nonzero;stroke:none"
         id="path26" /><path
         d="m 1420.94,755.82 h -100.99 l -38.27,163.504 -43.49,-163.504 h -100.06 l -74.86,246.91 h 91.51 l 37.55,-163.503 39.21,163.503 h 101.72 l 39.21,-164.46 35.88,164.46 h 85.07 l -72.48,-246.91 v 0"
         style="fill:#231f20;fill-opacity:1;fill-rule:nonzero;stroke:none"
         id="path28" /><path
         d="m 819.371,1119.41 c 7.527,-13.43 20.203,-22.56 40.004,-22.56 19.453,0 32.141,9.19 39.746,22.58 l 94.84,-0.02 c -16.742,-57.07 -69.121,-87.67 -134.586,-87.67 -65.805,0 -117.848,30.51 -134.426,87.67 h 94.422 v 0"
         style="fill:#231f20;fill-opacity:1;fill-rule:evenodd;stroke:none"
         id="path30" /><path
         d="m 724.949,1119.41 c -3.625,12.52 -5.562,26.31 -5.562,41.36 0,82.24 61.242,128.55 139.988,128.55 78.23,0 140.203,-46.64 140.203,-128.55 0,-15.03 -1.945,-28.84 -5.617,-41.36 h -94.84 c 6.68,11.76 9.442,26.76 9.442,41.61 0,31.73 -12.571,63.43 -49.188,63.43 -36.816,0 -49.207,-31.59 -49.207,-63.43 0,-14.97 2.637,-29.93 9.203,-41.62 l -94.422,0.01 v 0"
         style="fill:#231f20;fill-opacity:1;fill-rule:evenodd;stroke:none"
         id="path32" /><path
         d="m 1103.2,1038.63 h -86.74 v 246.91 h 79.37 v -36.84 c 14,25.58 39.25,40.89 68.22,40.89 8.98,0 17.84,-2.3 26.61,-4.05 l -0.71,-75.1 c -8.52,1.44 -15.6,4.05 -24.49,4.05 -35.26,0 -62.26,-20.9 -62.26,-58.22 v -117.64 0"
         style="fill:#231f20;fill-opacity:1;fill-rule:nonzero;stroke:none"
         id="path34" /><path
         d="m 1707.33,755.82 h -86.75 v 246.91 h 79.39 v -34.214 c 21.89,28.886 49.22,40.874 84.84,40.874 57.9,0 95.31,-41.499 95.04,-99.351 l -0.69,-154.219 h -88.42 v 137.598 c 0,20.625 -14.14,40.879 -35.88,40.879 -30.43,0 -47.53,-28.781 -47.53,-56.809 v -121.668 0"
         style="fill:#231f20;fill-opacity:1;fill-rule:nonzero;stroke:none"
         id="path36" /><path
         d="m 1588.5,755.82 v 246.2 H 1502 v -246.2 h 86.5 v 0"
         style="fill:#231f20;fill-opacity:1;fill-rule:nonzero;stroke:none"
         id="path38" /><path
         d="m 1707.33,1038.63 h -86.75 v 246.91 h 79.39 v -34.21 c 21.88,28.88 49.22,40.86 84.84,40.86 57.9,0 95.31,-41.49 95.04,-99.33 l -0.69,-154.23 h -88.42 v 137.6 c 0,20.63 -14.14,40.87 -35.88,40.87 -30.43,0 -47.53,-28.77 -47.53,-56.8 v -121.67 0"
         style="fill:#231f20;fill-opacity:1;fill-rule:nonzero;stroke:none"
         id="path40" /><path
         d="m 1588.5,1038.63 v 246.21 H 1502 v -246.21 h 86.5 v 0"
         style="fill:#231f20;fill-opacity:1;fill-rule:nonzero;stroke:none"
         id="path42" /><path
         d="m 1588.5,1319.06 v 66.77 H 1502 v -66.77 h 86.5 v 0"
         style="fill:#231f20;fill-opacity:1;fill-rule:nonzero;stroke:none"
         id="path44" /><path
         d="m 717.246,1275.33 v 76.76 c -31.047,10.51 -63.098,17.58 -96.012,17.58 -105.429,0 -184.89,-63.82 -184.89,-172.77 0,-103.83 86.117,-166.6 184.179,-166.6 32.547,0 65.551,4.61 96.723,14.02 0.484,24.88 0.481,50.21 0,75.11 -30.062,-13.86 -64.125,-18.54 -96.965,-18.54 -53.277,0 -89.828,49.24 -89.828,98.62 0,57.96 38.766,100.06 97.434,100.06 30.824,0 62.351,-9.98 89.359,-24.24 v 0"
         style="fill:#231f20;fill-opacity:1;fill-rule:nonzero;stroke:none"
         id="path46" /><path
         d="m 1054.71,992.273 v -65.117 c -19.39,13.75 -43.96,19.25 -67.483,19.25 -7.825,0 -34.231,-3.086 -34.231,-14.258 0,-1.066 2.18,-6.32 2.617,-7.597 27.532,-26.699 120.017,-5.156 120.017,-93.172 0,-54.785 -56.57,-82.934 -104.56,-82.934 -30.543,0 -63.379,0.918 -92.218,11.887 v 66.77 c 18.351,-9.125 54.82,-16.145 75.336,-16.145 10.027,0 33.988,0.281 33.988,15.438 0,1.835 -1.414,5.48 -1.903,7.367 -22.98,27.742 -115.73,11.968 -115.73,94.351 0,54.328 60.535,78.197 105.988,78.197 26.629,0 53.199,-4.9 78.179,-14.037 v 0"
         style="fill:#231f20;fill-opacity:1;fill-rule:nonzero;stroke:none"
         id="path48" /><path
         d="m 551.367,1002.27 87.696,0.24 V 755.82 l -79.379,-0.246 v 36.594 c -15.797,-25.996 -49.602,-43.953 -79.856,-43.953 -50.387,0 -99.015,32.195 -98.859,86.734 l 0.476,166.841 86.504,0.23 -0.246,-124.286 c -0.035,-23.339 5.102,-53.476 33.992,-53.476 36.633,0 50.278,26.941 50.145,60.371 l -0.473,117.641 v 0"
         style="fill:#231f20;fill-opacity:1;fill-rule:nonzero;stroke:none"
         id="path50" /><path
         d="m 1292.38,1038.63 h -86.75 v 346.96 h 85.8 V 1248.7 c 12.37,30.61 47.71,43.49 78.43,43.49 66.67,0 107.42,-65.97 107.42,-126.9 0,-66.96 -38.75,-132.38 -111.71,-132.38 -25.03,0 -58.85,10.47 -73.19,32.57 v -26.85 z m 40.88,65.35 h 16.15 c 20.62,0 37.08,31.74 37.08,48.95 v 21.87 c 0,21.72 -21.27,46.09 -44.44,46.09 -28.28,0 -48.96,-24.89 -48.96,-51.57 v -14.72 c 0,-19 17.65,-50.62 40.17,-50.62 v 0"
         style="fill:#231f20;fill-opacity:1;fill-rule:evenodd;stroke:none"
         id="path52" /></g></g></svg>
