<svg xmlns="http://www.w3.org/2000/svg" viewBox="0 0 648.7 121.6" aria-hidden="true"><path fill="#111" d="m272.8 0 13.4 121.6H266L255.5 26 215 121.6h-22l-41.6-98.1-10.8 98.1h-12.8L141.3 0h22.1l44.5 105L252.4 0h20.4M22.3 0v121.6h89.3v-12.5h-69V66.5h69V54h-69V12.5h69V0zm388 0v121.6h89.3v-12.5h-69V66.5h69V54h-69V12.5h69V0zm-19.4 0h-98.5v12.5h38.2v109.1H351V12.5h39.9zm233.8 121.6L559.1 55l53.7-55h-17l-57.7 59V0H519v121.6h19.1V61.2l59.4 60.4zm4.7-9.7c0 1.4.3 2.7.8 3.8q.75 1.8 2.1 3c.9.9 1.9 1.5 3.1 2s2.4.7 3.7.7 2.5-.2 3.7-.7 2.2-1.1 3-2q1.35-1.35 2.1-3c.5-1.2.8-2.4.8-3.8 0-1.3-.3-2.6-.8-3.8q-.75-1.8-2.1-3c-.9-.9-1.9-1.5-3-2-1.2-.5-2.4-.7-3.7-.7s-2.6.2-3.7.7c-1.2.5-2.2 1.2-3.1 2q-1.35 1.35-2.1 3c-.5 1.2-.8 2.5-.8 3.8m1.8 0c0-1.1.2-2.2.6-3.2s1-1.8 1.7-2.6c.7-.7 1.5-1.3 2.5-1.7s2-.6 3.1-.6 2.1.2 3.1.6 1.8 1 2.5 1.7 1.3 1.6 1.7 2.6.6 2.1.6 3.2q0 1.8-.6 3.3c-.4 1-1 1.9-1.7 2.6s-1.5 1.3-2.5 1.7-2 .6-3.1.6-2.2-.2-3.1-.6-1.8-1-2.5-1.7-1.3-1.6-1.7-2.6q-.6-1.5-.6-3.3m4.1-5.5v11.2h1.7v-4.8h1.8l3 4.8h1.9l-3.2-4.9c.8-.1 1.5-.4 2.1-.8.6-.5.8-1.2.8-2.2 0-1.1-.3-1.9-1-2.4-.6-.5-1.6-.8-3-.8h-4.1zm1.8 5v-3.6h2.3c.3 0 .6 0 .9.1.3 0 .6.1.8.2s.4.3.6.5.2.5.2.9-.1.8-.2 1c-.2.2-.4.4-.7.5s-.6.2-.9.2h-3z"></path></svg>
