<?xml version="1.0" encoding="UTF-8"?>
<svg id="Layer_1" xmlns="http://www.w3.org/2000/svg" viewBox="0 0 200.96 80">
<defs><style>.cls-1{fill:#53b173;}</style></defs>
<g>
<g>
<path class="cls-1" d="M59.41,38.97c0-4.42,2.64-7.07,6.42-7.07s6.1,2.54,6.1,6.96v16.18h6.53v-18.13c0-6.63-3.72-10.95-10.14-10.95-4.42,0-7.07,2.32-8.9,5.02V15.66h-6.53V55.04h6.53v-16.07Z"/>
<path class="cls-1" d="M136.5,50.4c-2.91,0-6.26-1.19-9.33-3.51l-2.91,4.42c3.56,2.8,8.04,4.26,12.08,4.26,5.93,0,10.57-2.97,10.57-8.95v-.11c0-5.12-4.69-7.01-8.85-8.31-3.34-1.08-6.42-1.94-6.42-3.99v-.11c0-1.67,1.46-2.86,3.99-2.86,2.37,0,5.29,1.03,8.04,2.7l2.59-4.64c-3.02-1.99-6.91-3.24-10.46-3.24-5.66,0-10.14,3.29-10.14,8.68v.11c0,5.45,4.69,7.18,8.9,8.36,3.34,1.02,6.36,1.78,6.36,3.99v.11c0,1.89-1.62,3.07-4.42,3.07Z"/>
<path class="cls-1" d="M117.62,55.04c1.32,0,2.4-1.07,2.4-2.4s-1.05-2.4-2.4-2.4-2.4,1.08-2.4,2.4,1.08,2.4,2.4,2.4Z"/>
<path class="cls-1" d="M150.17,55.04c1.32,0,2.4-1.07,2.4-2.4s-1.05-2.4-2.4-2.4-2.4,1.08-2.4,2.4,1.08,2.4,2.4,2.4Z"/>
<path class="cls-1" d="M83.35,55.04c1.32,0,2.4-1.07,2.4-2.4s-1.05-2.4-2.4-2.4-2.4,1.08-2.4,2.4,1.08,2.4,2.4,2.4Z"/>
<path class="cls-1" d="M101.9,55.92c4.85,0,8.83-1.83,11.83-5.43l.15-.18-4.17-3.7-.16,.15c-2.37,2.32-4.57,3.86-7.55,3.86-4.26,0-9.1-4.05-9.22-9.47-.06-3.07,.99-5.94,2.9-7.89,1.52-1.55,3.46-2.4,5.46-2.4,5.29,0,7.73,4.15,8.24,7.81h-8.85c-2.37,.27-4.16,2.17-4.16,4.43v.24h18.56l.03-.34c.05-.6,.1-1.16,.1-1.73,0-7.71-4.26-15.5-13.79-15.56-.03,0-.05,0-.08,0-3.72,0-7.24,1.46-9.91,4.11-2.75,2.73-4.26,6.38-4.26,10.26v.81c0,8.7,6.25,15.02,14.85,15.02Z"/>
<path class="cls-1" d="M31.38,0V71.35H168.35V0H31.38ZM162.3,65.3H37.43V6.05h124.87v59.25Z"/>
</g>
</g>
</svg>