<svg xmlns="http://www.w3.org/2000/svg" viewBox="0 0 341.81 139.29"><defs><style>.cls-1{fill:#1d1d1b;}</style></defs><g id="Base"><path class="cls-1" d="M0,63.65V75c0,3,2,2.65,2.64,2.65H339.15V89.06h2.64V77.71s.46-2.68-2.68-2.68H2.64V63.65Z"/><path class="cls-1" d="M123.84,96.21l-11.22,29.58c0-9.56-9.43-11.5-12.5-12.26-10.56-2.72-12.56-3.11-12.56-6.37,0-3.54,3.42-4.77,6.36-4.77,4.44,0,8,1.29,8.32,6.36h9c0-9.73-8.08-13.55-16.86-13.55-7.51,0-15.52,4-15.72,12.41C78,98.74,70.24,95.21,61.8,95.22c-7.58,0-15.71,4.13-15.71,12.73,0,7.91,6.31,10.31,12.55,12s12.5,2.41,12.5,7c0,4.3-4.94,5.24-8.18,5.25-5,0-9.31-2.18-9.32-7.78H44.79L34.26,96.22H24.78L8.84,138.3H18.2l3.3-9.37H37.25l3.18,9.37H50l-1.48-3.93c3.39,3.36,8.61,4.93,14.05,4.92,8.43,0,13.93-3.14,16.25-7.89,2.94,5.41,9.44,7.89,16.28,7.88,6.61,0,11.41-1.94,14.29-5.06l-1.54,4.07h9.37l3.3-9.4H136.3l3.18,9.42h9.62l-15.76-42.1ZM23.9,122l5.49-15.43h.12L34.82,122Zm71.56,10.06c-4.94,0-9.3-2.18-9.32-7.76H80c-.92-8.28-9.51-10.06-12.42-10.79-10.53-2.71-12.54-3.13-12.55-6.36,0-3.54,3.42-4.78,6.37-4.77,4.43,0,8,1.28,8.31,6.35h8.93c.44,7.24,6.49,9.55,12.51,11.13,6.19,1.65,12.5,2.41,12.51,7C103.66,131.14,98.72,132.09,95.46,132.09ZM123,122l5.49-15.44h.11L133.88,122Zm100.75-6.58c3.66-1.77,5.72-4.67,5.73-8.79,0-7.83-5.43-10.43-13.46-10.4h-19.8l0,39-14.59-39H172.1l-15.95,42.09h9.38l3.29-9.37h15.75l3.18,9.36H216.6c7.6,0,14.84-3.69,14.85-12.24C231.44,120.82,228.84,116.88,223.71,115.42ZM171.23,122l5.49-15.44h.12L182.15,122Zm34.22-18.66h8.65c3.3,0,6.37.83,6.38,4.84,0,3.54-2.43,5-5.65,5h-9.38Zm9.91,27.71h-9.9V119.54h10.08c3.94,0,6.67,1.71,6.66,6S219,131.09,215.36,131.09Zm59.43-35.9c-13,0-20.69,9.71-20.68,22.22a24,24,0,0,0,3.63,13H242.06V96.22H232.8v42.09h26.85V133c3.53,3.9,8.68,6.3,15.16,6.29,13,0,20.68-9.73,20.66-21.86C295.49,104.89,287.81,95.17,274.79,95.19Zm0,36.3c-8.31,0-11.43-7.07-11.44-14.08,0-7.37,3.1-14.44,11.43-14.44s11.43,7.06,11.45,14.42C286.25,124.42,283.12,131.48,274.81,131.49ZM319,96.22l-9.77,16.57-9.86-16.57H289l15.49,25.64V138.3h9.26V122.09l15.62-25.87Z"/></g><g id="McKinney"><path class="cls-1" d="M51.91,52H62.07V8H44.76L36.53,36.72H35.17l-.32-.66L27.21,8H9.71V52H18.9V19.22h1.57l.32.65,9,32.08H40.74l9.47-32.8h1.57l.13.89Z"/><path class="cls-1" d="M83.07,18.67c-14.37,0-15.92,11.61-15.92,16.6,0,11.29,6.24,17.5,17.57,17.5A41.14,41.14,0,0,0,94,51.71l1.16-8.42a24.86,24.86,0,0,1-7.56,1.45c-5.93,0-9.2-3.21-9.2-9.05,0-5.63,3.41-9,9.13-9a27.44,27.44,0,0,1,7.93,1.49l-1-8.38A48,48,0,0,0,83.07,18.67Z"/><path class="cls-1" d="M101.25,52h12.63V8H101.25Z"/><path class="cls-1" d="M152,52H163.2V19.49H152Z"/><path class="cls-1" d="M195.45,52h11.26V29.65c0-7.29-4.18-11-12.42-11a16.06,16.06,0,0,0-12.86,5.61L180,26.06l-.05-6.57H169.18V52h11.25V40.9c0-12,6-13.31,8.64-13.31,4.71,0,6.38,3.61,6.38,7Z"/><path class="cls-1" d="M238.48,52h11.26V29.65c0-7.29-4.18-11-12.43-11a16,16,0,0,0-12.85,5.61L223,26.06,223,19.49H212.2V52h11.25V40.9c0-12,6.05-13.31,8.65-13.31,4.7,0,6.38,3.61,6.38,7Z"/><path class="cls-1" d="M290,36.85V33.49c0-9.28-6.46-14.82-17.29-14.82-11.34,0-17.84,6.2-17.84,17,0,11.33,6.39,17.08,19,17.08a58.72,58.72,0,0,0,12.3-1.15l1-7.63a39.86,39.86,0,0,1-10.8,1.92c-4.75,0-10.3-2.14-10.3-8.17v-.89Zm-22.4-6.35c.71-2.88,2.71-4.6,5.34-4.6,2.87,0,4.53,1.62,4.8,4.67l0,.48H267.41Z"/><path class="cls-1" d="M292.37,67.4a36.43,36.43,0,0,0,7.46.81c7,0,11.6-2.78,13.72-8.28l15.59-40.44H318.09c-2.9,8-5,16.15-7,23.36l-.17.66h-1.36l-.32-.65-6.68-23.37H291.25l13,34-.06.26c-1,4.54-3.73,7-7.88,7a17.59,17.59,0,0,1-5.41-1Z"/><path class="cls-1" d="M158,5.62l-6.17,7.78,11.09,0,6.15-7.76Z"/><path class="cls-1" d="M336.12,21.66V20.22h1c.49,0,1,.11,1,.68s-.54.76-1.13.76Zm0,.59h.8l1.24,2h.77l-1.3-2A1.21,1.21,0,0,0,338.82,21c0-.92-.55-1.33-1.63-1.33h-1.77v4.64h.7ZM337,26a4,4,0,1,0-4.08-4A4,4,0,0,0,337,26m-3.28-4A3.27,3.27,0,1,1,337,25.3a3.26,3.26,0,0,1-3.28-3.37"/><path class="cls-1" d="M137.62,59.91h14.15L127,28.55l.11-.14L150,0H136.62L115.05,28.69Z"/></g></svg>