<?xml version="1.0" encoding="UTF-8" standalone="no"?>
<svg xmlns="http://www.w3.org/2000/svg" version="1.1" width="344.72" height="120" viewBox="0 0 344.72 120">
<g transform="matrix(1.3333333,0,0,-1.3333333,0,120)" clip-path="url(#clip1)">
<path d="m 2189.3,759.609 225.05,230.282 c 7.06,7.226 11.17,18.509 11.17,28.529 0,21.78 -17.98,41.11 -40.16,41.11 -10.58,0 -21.69,-3.76 -29.22,-11.4 L 2071.67,759.609 h -56.58 l 227.42,230.996 c 7.56,7.665 11.2,17.725 11.2,28.305 0,20.33 -21.68,40.14 -41.62,40.14 -11.21,0 -21.56,-4.64 -29.46,-12.59 L 1954.26,816.414 v 54.895 l 284.94,291.131 c 8.41,8.6 13.07,19.55 13.07,31.6 0,22.89 -21.08,41.59 -43.24,41.59 -10.77,0 -22.6,-8.4 -29.73,-15.69 L 1954.97,990.605 v 56.805 L 2070,1163.16 c 8.64,8.69 12.1,20.87 12.1,32.78 0,23.63 -22.91,37.79 -44.18,37.79 -27.47,0 -71.06,-54.99 -83.66,-67.25 v 121.67 H 2477.8 V 759.609 h -288.5 v 0"
style="fill:#231f20;fill-opacity:1;fill-rule:nonzero;stroke:none" transform="scale(0.1)" />
<path d="m 0,634.395 c 0,0 0,-68.887 0,-86.075 0,-22.812 15.2773,-20.039 19.9414,-20.039 226.4726,0 2526.4986,-0.011 2545.2486,-0.011 0,-16.051 0,-86.122 0,-86.122 h 20 v 85.86 c 0,0 3.44,20.262 -20.31,20.262 -228.77,0 -2526.1417,0.011 -2544.88,0.011 0,16.055 0,86.114 0,86.114 H 0"
style="fill:#231f20;fill-opacity:1;fill-rule:nonzero;stroke:none" transform="scale(0.1)" />
<path d="m 2079.77,58.1289 c -61.97,0 -85.21,52.7111 -85.29,104.9801 -0.08,54.891 23.14,107.59 85.17,107.629 61.98,0 85.22,-52.636 85.34,-107.468 0.05,-52.399 -23.31,-105.0512 -85.22,-105.1411 z m -0.18,270.5431 c -97.03,0.058 -154.17,-72.363 -154.1,-165.563 0.08,-36.609 9.55,-70.1207 27.07,-97.2106 H 1835.67 L 1835.59,321 1766.7,320.988 1766.72,7.37109 h 200.1 V 47.1289 c 26.37,-29.0586 64.73,-46.937494 112.97,-46.890619 97.05,0 154.12,72.492219 154.02,162.960719 0.04,93.172 -57.16,165.629 -154.22,165.473 z"
style="fill:#231f20;fill-opacity:1;fill-rule:nonzero;stroke:none" transform="scale(0.1)" />
</g>
</svg>