<?xml version="1.0" encoding="UTF-8"?>
<svg xmlns="http://www.w3.org/2000/svg" width="746.71pt" height="210pt" viewBox="0 0 746.71 210" version="1.1">
<g id="surface1">
<path style=" stroke:none;fill-rule:nonzero;fill:rgb(0%,0%,0%);fill-opacity:1;" d="M 30.808594 102.039063 C 30.808594 78.6875 52.941406 57.035156 78.761719 57.035156 C 86.378906 57.035156 96.953125 59.003906 111.710938 70.5625 C 125.972656 58.765625 137.53125 57.535156 147.371094 57.535156 C 173.441406 57.535156 193.71875 81.71875 193.71875 102.304688 L 193.71875 174.503906 L 161.265625 174.503906 L 161.265625 111.210938 C 161.265625 98.847656 156.96875 89.511719 144.660156 89.511719 C 131.394531 89.511719 128.554688 99.578125 128.554688 112.300781 L 128.554688 174.503906 L 95.734375 174.503906 L 95.734375 109.171875 C 95.734375 95.648438 89.089844 89.015625 79.746094 89.015625 C 71.136719 89.015625 64.121094 94.414063 64.121094 109.527344 L 64.121094 174.503906 L 30.808594 174.503906 L 30.808594 102.039063 "/>
<path style=" stroke:none;fill-rule:nonzero;fill:rgb(0%,0%,0%);fill-opacity:1;" d="M 284.347656 131.34375 C 304.753906 131.34375 310.664063 113.101563 304.894531 98.890625 C 295.835938 76.484375 277.820313 59.734375 248.6875 59.734375 C 216.96875 59.734375 190.660156 87.285156 190.660156 117.0625 C 190.660156 148.519531 214.339844 176.066406 249.183594 176.066406 C 274.894531 176.066406 293.445313 163.039063 304.753906 137.289063 L 268.359375 137.289063 C 261.476563 143.613281 256.5625 145.316406 249.183594 145.316406 C 239.101563 145.316406 228.277344 138.1875 228.277344 131.34375 C 228.277344 131.34375 279.917969 131.34375 284.347656 131.34375 Z M 227.78125 106.730469 C 227.78125 102.039063 233.941406 91.480469 248.933594 91.480469 C 264.09375 91.480469 270.335938 101.070313 270.335938 106.730469 L 227.78125 106.730469 "/>
<path style=" stroke:none;fill-rule:nonzero;fill:rgb(0%,0%,0%);fill-opacity:1;" d="M 513.796875 131.34375 C 534.191406 131.34375 540.101563 113.101563 534.335938 98.890625 C 525.273438 76.484375 507.257813 59.734375 478.121094 59.734375 C 446.40625 59.734375 420.089844 87.285156 420.089844 117.0625 C 420.089844 148.519531 443.777344 176.066406 478.621094 176.066406 C 504.335938 176.066406 522.882813 163.039063 534.191406 137.289063 L 497.808594 137.289063 C 490.914063 143.613281 486.003906 145.316406 478.621094 145.316406 C 468.542969 145.316406 457.71875 138.1875 457.71875 131.34375 C 457.71875 131.34375 509.355469 131.34375 513.796875 131.34375 Z M 457.230469 106.730469 C 457.230469 102.039063 463.378906 91.480469 478.371094 91.480469 C 493.53125 91.480469 499.761719 101.070313 499.761719 106.730469 L 457.230469 106.730469 "/>
<path style=" stroke:none;fill-rule:nonzero;fill:rgb(0%,0%,0%);fill-opacity:1;" d="M 423.652344 111.871094 C 423.652344 75.488281 423.652344 -0.00390625 423.652344 -0.00390625 L 389.855469 -0.00390625 L 389.855469 70.324219 L 389.425781 70.324219 L 389.640625 70.324219 C 380.507813 61.230469 367.21875 60.496094 360.824219 60.496094 C 327.933594 60.496094 304.269531 87.546875 304.269531 117.605469 C 304.269531 151.480469 328.359375 176.804688 364.269531 176.804688 C 398.949219 176.804688 423.652344 148.28125 423.652344 111.871094 Z M 389.355469 119.265625 C 389.355469 134.992188 376.324219 144.585938 363.035156 144.585938 C 350.011719 144.585938 336.484375 133.761719 336.484375 118.769531 C 336.484375 105.238281 349.027344 92.210938 363.273438 92.210938 C 378.042969 92.210938 389.355469 105.003906 389.355469 119.265625 "/>
<path style=" stroke:none;fill-rule:nonzero;fill:rgb(0%,0%,0%);fill-opacity:1;" d="M 607.351563 93.0625 C 603.171875 93.0625 594.441406 93.207031 589.882813 93.207031 C 581.164063 93.207031 567.140625 101.59375 567.140625 118.03125 C 567.140625 134.019531 580.917969 142.878906 591.007813 142.878906 C 594.441406 142.878906 602.816406 142.878906 606.25 142.878906 L 606.25 174.835938 C 603.054688 174.835938 593.210938 174.601563 589.457031 174.601563 C 561.742188 174.601563 532.722656 152.214844 532.722656 115.570313 C 532.722656 86.550781 560.261719 60.992188 590.097656 60.992188 C 593.210938 60.992188 604.035156 61.464844 607.480469 61.464844 L 607.351563 93.0625 "/>
<path style=" stroke:none;fill-rule:nonzero;fill:rgb(0%,0%,0%);fill-opacity:1;" d="M 598.621094 119.996094 C 598.621094 149.015625 623.09375 177.300781 658.164063 177.300781 C 693.457031 177.300781 717.652344 148.519531 717.652344 118.03125 C 717.652344 89.25 693.457031 59.996094 658.164063 59.996094 C 623.09375 59.996094 598.621094 88.28125 598.621094 119.996094 Z M 631.820313 118.527344 C 631.820313 108.4375 639.199219 92.707031 658.621094 92.707031 C 670.929688 92.707031 684.941406 101.570313 684.941406 118.527344 C 684.941406 136.25 669.945313 145.582031 658.386719 145.582031 C 637.601563 145.582031 631.820313 127.628906 631.820313 118.527344 "/>
<path style=" stroke:none;fill-rule:nonzero;fill:rgb(0%,0%,0%);fill-opacity:1;" d="M 705.5625 62.886719 L 705.5625 58.976563 L 708.105469 58.976563 C 709.457031 58.976563 710.761719 59.355469 710.761719 60.921875 C 710.761719 62.839844 709.089844 62.886719 707.398438 62.886719 Z M 705.5625 64.046875 L 707.882813 64.046875 L 711.046875 69.070313 L 712.667969 69.070313 L 709.339844 64.046875 C 710.828125 63.785156 712.144531 62.914063 712.144531 60.921875 C 712.144531 58.90625 711.023438 57.820313 708.5 57.820313 L 704.1875 57.820313 L 704.1875 69.070313 L 705.5625 69.070313 Z M 707.71875 53.695313 C 702.207031 53.695313 697.980469 57.960938 697.980469 63.429688 C 697.980469 68.902344 702.207031 73.191406 707.71875 73.191406 C 713.1875 73.191406 717.429688 68.902344 717.429688 63.429688 C 717.429688 57.960938 713.1875 53.695313 707.71875 53.695313 Z M 707.71875 55.070313 C 712.40625 55.070313 715.9375 58.765625 715.9375 63.429688 C 715.9375 68.097656 712.40625 71.792969 707.71875 71.792969 C 703.003906 71.792969 699.484375 68.097656 699.484375 63.429688 C 699.484375 58.765625 703.003906 55.070313 707.71875 55.070313 "/>
</g>
</svg>