<?xml version="1.0" encoding="utf-8"?>
<svg viewBox="19.134 0 599.696 265.853" width="599.696px" height="265.853px" xmlns="http://www.w3.org/2000/svg">
  <g transform="matrix(1.2300000190734863, 0, 0, 1.1299999952316284, 312.25, 88.53999328613281)">
    <g style="">
      <g transform="matrix(1 0 0 1 6.33 54.15)">
        <path style="stroke: none; stroke-width: 1; stroke-dasharray: none; stroke-linecap: butt; stroke-dashoffset: 0; stroke-linejoin: miter; stroke-miterlimit: 4; fill: rgb(0,0,0); fill-rule: nonzero; opacity: 1;" transform=" translate(-312.33, -347.19)" d="M 71.64 329.29 c 0 0 0 12.83 0 16.03 c 0 4.25 2.84 3.73 3.71 3.73 c 42.17 0 470.42 0 473.92 0 c 0 2.99 0 16.04 0 16.04 h 3.72 V 349.1 c 0 0 0.64 -3.77 -3.78 -3.77 c -42.6 0 -470.36 0 -473.85 0 c 0 -2.99 0 -16.03 0 -16.03 H 71.64 z" stroke-linecap="round"/>
      </g>
      <g transform="matrix(1 0 0 1 6.19 123.78)">
        <path style="stroke: none; stroke-width: 1; stroke-dasharray: none; stroke-linecap: butt; stroke-dashoffset: 0; stroke-linejoin: miter; stroke-miterlimit: 4; fill: rgb(0,0,0); fill-rule: nonzero; opacity: 1;" transform=" translate(-312.19, -416.81)" d="M 249.4 387.63 l -15.57 41.04 c -0.02 -13.26 -13.09 -15.96 -17.35 -17 c -14.64 -3.78 -17.42 -4.32 -17.42 -8.84 c 0.01 -4.91 4.75 -6.62 8.83 -6.62 c 6.15 -0.01 11.13 1.79 11.54 8.82 h 12.43 c -0.02 -13.5 -11.22 -18.8 -23.39 -18.8 c -10.43 -0.01 -21.53 5.59 -21.81 17.21 c -0.87 -12.3 -11.63 -17.2 -23.34 -17.19 c -10.53 0 -21.81 5.74 -21.8 17.66 c 0 10.98 8.75 14.31 17.42 16.6 c 8.6 2.29 17.34 3.35 17.33 9.64 c 0.01 5.97 -6.86 7.27 -11.35 7.29 c -6.88 0.01 -12.92 -3.03 -12.93 -10.79 h -12.27 l -14.62 -39.01 h -13.15 l -22.13 58.4 h 12.99 l 4.58 -13 l 21.85 -0.01 l 4.41 13 h 13.32 l -2.05 -5.46 c 4.71 4.67 11.95 6.85 19.5 6.84 c 11.69 0.01 19.33 -4.36 22.54 -10.95 c 4.09 7.5 13.11 10.94 22.59 10.93 c 9.17 0 15.83 -2.69 19.84 -7.03 l -2.14 5.66 h 13 l 4.58 -13.04 l 21.85 0 l 4.42 13.07 l 13.34 0 l -21.87 -58.41 H 249.4 z M 110.72 423.46 l 7.61 -21.42 h 0.17 l 7.36 21.42 L 110.72 423.46 z M 210.01 437.42 c -6.86 0.01 -12.91 -3.02 -12.93 -10.76 l -8.51 -0.01 c -1.27 -11.48 -13.19 -13.95 -17.23 -14.96 c -14.61 -3.76 -17.41 -4.34 -17.41 -8.82 c 0.02 -4.92 4.75 -6.64 8.83 -6.63 c 6.14 0 11.11 1.78 11.54 8.81 h 12.38 c 0.61 10.04 9 13.26 17.36 15.45 c 8.6 2.29 17.35 3.34 17.36 9.65 C 221.4 436.1 214.54 437.41 210.01 437.42 z M 248.17 423.42 l 7.61 -21.42 h 0.16 l 7.38 21.42 L 248.17 423.42 z M 387.98 414.29 c 5.08 -2.46 7.94 -6.47 7.95 -12.2 c -0.01 -10.87 -7.54 -14.47 -18.68 -14.43 l -27.48 0 l 0.03 54.06 l -20.24 -54.07 l -13.19 0 l -22.14 58.4 h 13.02 l 4.57 -13 h 21.85 l 4.41 12.99 l 13.34 -0.01 l -0.01 0.01 l 26.7 0.01 c 10.54 -0.03 20.59 -5.12 20.6 -16.98 C 398.7 421.78 395.1 416.32 387.98 414.29 z M 315.16 423.48 l 7.62 -21.43 h 0.16 l 7.37 21.43 H 315.16 z M 362.63 397.59 h 12.01 c 4.57 0.01 8.84 1.15 8.85 6.71 c -0.01 4.92 -3.37 6.97 -7.84 6.96 l -13.02 0.01 L 362.63 397.59 z M 376.39 436.03 l -13.75 0 L 362.64 420 l 13.99 0 c 5.47 -0.01 9.25 2.37 9.24 8.35 C 385.86 434.4 381.44 436.03 376.39 436.03 z M 458.86 386.22 c -18.07 -0.01 -28.71 13.47 -28.69 30.83 c 0.01 6.82 1.78 13.06 5.04 18.1 h -21.77 l -0.01 -47.5 l -12.83 0 l 0 58.39 h 37.26 v -7.4 c 4.91 5.41 12.05 8.74 21.03 8.73 c 18.07 0 28.7 -13.5 28.68 -30.34 C 487.58 399.68 476.93 386.19 458.86 386.22 z M 458.89 436.59 c -11.54 0 -15.87 -9.81 -15.88 -19.55 c -0.01 -10.22 4.31 -20.03 15.86 -20.04 c 11.54 0 15.87 9.8 15.89 20.01 C 474.77 426.77 470.42 436.58 458.89 436.59 z M 520.25 387.64 l -13.56 23 l -13.67 -23 h -14.48 l 21.51 35.58 v 22.81 h 12.85 l 0 -22.49 l 21.67 -35.91 L 520.25 387.64 z" stroke-linecap="round"/>
      </g>
      <g transform="matrix(1 0 0 1 -112.11 -20.79)">
        <polygon style="stroke: none; stroke-width: 1; stroke-dasharray: none; stroke-linecap: butt; stroke-dashoffset: 0; stroke-linejoin: miter; stroke-miterlimit: 4; fill: rgb(0,0,0); fill-rule: nonzero; opacity: 1;" points="21.83,-19.16 21.83,-33.72 -2.42,-33.72 -18.12,-33.72 -21.82,-33.72 -21.82,33.71 -18.12,33.71 -2.42,33.71 21.83,33.71 21.83,19.17 -2.42,19.17 -2.42,7.27 21.83,7.27 21.83,-7.27 -2.42,-7.27 -2.42,-19.16 "/>
      </g>
      <g transform="matrix(1 0 0 1 92.64 -20.79)">
        <polygon style="stroke: none; stroke-width: 1; stroke-dasharray: none; stroke-linecap: butt; stroke-dashoffset: 0; stroke-linejoin: miter; stroke-miterlimit: 4; fill: rgb(0,0,0); fill-rule: nonzero; opacity: 1;" points="35.68,33.71 2.65,-2.07 33.6,-33.72 8.66,-33.72 -16.28,-5.61 -16.28,-33.72 -35.68,-33.72 -35.68,33.71 -16.28,33.71 -16.28,3.76 10.27,33.71 "/>
      </g>
      <g transform="matrix(1 0 0 1 182.32 -20.78)">
        <path style="stroke: none; stroke-width: 1; stroke-dasharray: none; stroke-linecap: butt; stroke-dashoffset: 0; stroke-linejoin: miter; stroke-miterlimit: 4; fill: rgb(0,0,0); fill-rule: nonzero; opacity: 1;" transform=" translate(-488.32, -272.26)" d="M 488.32 236.48 c -24 0 -43.45 16.02 -43.45 35.78 s 19.45 35.78 43.45 35.78 c 24 0 43.45 -16.02 43.45 -35.78 S 512.32 236.48 488.32 236.48 z M 487.91 291.42 c -12.29 0 -22.25 -8.73 -22.25 -19.51 s 9.96 -19.51 22.25 -19.51 c 12.29 0 22.25 8.73 22.25 19.51 S 500.2 291.42 487.91 291.42 z" stroke-linecap="round"/>
      </g>
      <g transform="matrix(1 0 0 1 -185.28 -20.79)">
        <path style="stroke: none; stroke-width: 1; stroke-dasharray: none; stroke-linecap: butt; stroke-dashoffset: 0; stroke-linejoin: miter; stroke-miterlimit: 4; fill: rgb(0,0,0); fill-rule: nonzero; opacity: 1;" transform=" translate(-120.72, -272.25)" d="M 130.29 238.53 h -19.27 h -16.4 h -3 v 67.44 h 19.4 v -23.56 h 19.27 c 10.79 0 19.53 -8.74 19.53 -19.53 v -4.82 C 149.82 247.27 141.08 238.53 130.29 238.53 z M 129.98 261.36 c 0 4.11 -3.34 7.45 -7.45 7.45 h -13.6 v -16.74 h 13.6 c 4.11 0 7.45 3.34 7.45 7.45 V 261.36 z" stroke-linecap="round"/>
      </g>
      <g transform="matrix(1 0 0 1 -10.5 -31.05)">
        <polygon style="stroke: none; stroke-width: 1; stroke-dasharray: none; stroke-linecap: butt; stroke-dashoffset: 0; stroke-linejoin: miter; stroke-miterlimit: 4; fill: rgb(0,0,0); fill-rule: nonzero; opacity: 1;" points="53,-45.36 31.98,-45.36 -8.46,8.82 -31.28,-23.43 -35.75,-23.43 -53,-23.43 -53,45.36 -35.75,45.36 -35.75,-0.12 -9.95,34.76 "/>
      </g>
      <g transform="matrix(1 0 0 1 18.86 -14.6)">
        <polygon style="stroke: none; stroke-width: 1; stroke-dasharray: none; stroke-linecap: butt; stroke-dashoffset: 0; stroke-linejoin: miter; stroke-miterlimit: 4; fill: rgb(0,0,0); fill-rule: nonzero; opacity: 1;" points="-8.63,-6.95 -8.63,28.9 8.63,28.9 8.63,-28.91 "/>
      </g>
    </g>
  </g>
</svg>